Simulation
nRows=19
nColumns=15
endheader
time  TH_x TH_y TH_z SC_y  SC_z  SC_x  AC_y  AC_z  AC_x  GH_y  GH_z  GH_yy  EL_x  PS_y
0.0  0.000000  0.000000  0.000000  -30.44380027181672  -18.582667148882415  13.420472926539796  46.251305269319424  -6.3561363796627735  16.996724734843866  28.5175040716506  55.63860451097632  25.814472389830406  26.99290648223573  120.000000
0.040972222222222215  0.000000  0.000000  0.000000  -28.536366603199355  -15.812271809398915  4.120150130293989  45.58888294618885  -1.7964925319753218  22.92193650672507  18.855747498008316  56.17828423151293  31.595205178054588  29.24239984076753  120.000000
0.08194444444444443  0.000000  0.000000  0.000000  -24.62989999101295  -13.880703811334287  -1.666221202501712  43.07483263412931  2.7988955198008436  29.412924351336418  6.627588516045328  55.37511916754949  42.71507471830648  32.21639875441587  120.000000
0.12291666666666665  0.000000  0.000000  0.000000  -18.959227989091268  -10.760569523366414  -10.369833820578963  39.982190127500765  -1.215260539046917  33.61017822109361  2.800439156653824  60.439034432229825  46.020100362663314  30.791657869972113  120.000000
0.16388888888888886  0.000000  0.000000  0.000000  -5.30614656620444  10.376070255304112  -10.891958166948815  26.90119626798049  2.9363571646138067  35.60123745113316  -13.123896288314508  36.64142682005367  59.147054287582  30.377403663629938  120.000000
0.20486111111111108  0.000000  0.000000  0.000000  -5.867449969345294  31.2095010989383  -2.208914494469125  22.542080363709644  13.916167303409019  33.45888247689766  -63.43987245665813  16.059896594208105  114.86552947471716  32.21639875453344  120.000000
0.2458333333333333  0.000000  0.000000  0.000000  -24.163774169407404  27.53541440098286  -0.3292162585350563  35.679025311649085  9.785491856292346  23.88341604065606  21.663313633793184  17.659981172121235  28.417098901703607  26.2121104293036  120.000000
0.28680555555555554  0.000000  0.000000  0.000000  -37.95049465709518  16.023743562828805  -7.637286598089287  47.13390281104761  5.343614474925414  13.345776556633169  39.45011195191313  42.082519517532404  -0.9692733464785598  17.808102646605203  120.000000
0.3277777777777777  0.000000  0.000000  0.000000  -40.31037665393385  5.527162860293359  -10.310967609515803  52.26145861221675  10.93472237934445  8.532896173650665  39.50984499277532  46.05339837061175  -6.557983104879303  14.458927402376382  120.000000
0.3687499999999999  0.000000  0.000000  0.000000  -36.3482338756547  -2.1423320812657427  -10.611940935313099  50.14033812228376  15.929912640546412  10.457539166463773  36.15865069305867  42.45858038438621  -7.272955382311577  14.190749869983852  120.000000
0.40972222222222215  0.000000  0.000000  0.000000  -33.045253558601864  -2.96988531320489  -10.97396468167595  49.67306274168215  18.046075236981256  11.886446829513675  35.16770732950217  38.93321603969352  -9.094439811588293  14.32248801419327  120.000000
0.4506944444444444  0.000000  0.000000  0.000000  -30.80515059026417  0.06857723353265645  -11.930237484534514  50.1121515755524  18.203519679195217  12.744502276450026  35.519795308497955  34.519041576353054  -10.88944913425644  15.651929257780186  120.000000
0.4916666666666666  0.000000  0.000000  0.000000  -29.16262778528138  2.532607288367289  -12.848714283652084  49.059213185024085  17.387185033521952  14.743913930228473  35.98625335195575  29.2343567532144  -13.009538813586303  16.543426103612614  120.000000
0.5326388888888888  0.000000  0.000000  0.000000  -28.25068445186471  3.970505719683632  -13.511767388517793  47.75416340124896  16.858344045309597  16.60826638843598  35.80869953734719  24.462673424286596  -14.971707577587939  16.829333850599735  120.000000
0.5736111111111111  0.000000  0.000000  0.000000  -28.085231045035357  4.992740106142374  -13.944915974022939  47.0292500612954  17.204200373576715  17.56150291470744  34.51750899104897  21.00305513473446  -16.20167088895053  17.069783013584097  120.000000
0.6145833333333333  0.000000  0.000000  0.000000  -28.60109157353586  5.610355549679493  -14.056802437295095  46.52500586494269  18.220666121635155  18.132620207973606  31.51421637519719  18.745859977216025  -15.91612572105028  17.14954683254098  120.000000
0.6555555555555554  0.000000  0.000000  0.000000  -29.53348134204485  5.864727637591581  -13.914429741605124  46.155410787741715  19.654779564678364  18.45419642527647  26.996541377850082  17.755400158675887  -14.285720519821528  17.122931150286412  120.000000
0.6965277777777776  0.000000  0.000000  0.000000  -30.573426095716385  5.925882280802212  -13.528657530077552  45.97494599601139  21.280305231327812  18.64120758505599  21.7938521313707  17.81756746777017  -11.91994751883859  17.03914756518322  120.000000
0.7374999999999998  0.000000  0.000000  0.000000  -31.51197560017602  5.8961185502830125  -12.95520988012087  45.902479452711994  22.877919428136597  18.781954641347607  17.118423732196767  18.655915117039566  -10.058950927120629  16.95082308046801  120.000000
